<svg width="524" height="140" viewBox="0 0 524 140" fill="none" xmlns="http://www.w3.org/2000/svg">
<path d="M106.034 45.1946C104.542 45.1946 103.122 44.9102 101.772 44.3414C100.459 43.7372 99.3044 42.9551 98.3101 41.9954C97.3158 41 96.5346 39.8448 95.9664 38.5295C95.3982 37.1788 95.1142 35.7569 95.1142 34.2639L95.1142 12.4026C95.1142 10.9096 95.3982 9.50551 95.9664 8.19028C96.5346 6.83949 97.3158 5.68422 98.3101 4.72446C99.3044 3.72914 100.459 2.94711 101.772 2.37836C103.122 1.77406 104.542 1.47192 106.034 1.47192L143.107 1.47192C144.598 1.47192 146.001 1.77406 147.315 2.37836C148.664 2.94711 149.836 3.72914 150.831 4.72446C151.825 5.68422 152.606 6.83949 153.174 8.19028C153.742 9.50551 154.027 10.9096 154.027 12.4026L154.027 22.2668L143.107 22.2668L143.107 12.4026L106.034 12.4026L106.034 34.2639L143.107 34.2639C144.598 34.2639 146.001 34.5483 147.315 35.117C148.664 35.6858 149.836 36.4678 150.831 37.4631C151.825 38.4584 152.606 39.6315 153.174 40.9823C153.742 42.2975 154.027 43.7016 154.027 45.1946L154.027 67.0026C154.027 68.4956 153.742 69.9174 153.174 71.2682C152.606 72.5834 151.825 73.7387 150.831 74.734C149.836 75.7293 148.664 76.5114 147.315 77.0801C146.001 77.6489 144.598 77.9332 143.107 77.9332L104.968 77.9332C103.477 77.9332 102.057 77.6489 100.707 77.0801C99.3932 76.5114 98.2391 75.7293 97.2448 74.734C96.2505 73.7387 95.4693 72.5834 94.9011 71.2682C94.3329 69.9174 94.0488 68.4956 94.0488 67.0026L94.0488 57.1916L104.968 57.1916L104.968 67.0026L143.107 67.0026L143.107 45.1946L106.034 45.1946Z" fill="black"/>
<path d="M229.366 77.9332L199.91 1.47192L211.629 1.47192L235.385 64.3899L259.195 1.47192L270.861 1.47192L241.404 77.9332L229.366 77.9332Z" fill="black"/>
<path d="M327.557 1.47192L327.557 77.9332L316.638 77.9332L316.638 1.47192L327.557 1.47192Z" fill="black"/>
<path d="M373.387 1.47192L434.484 1.47192L434.484 12.4026L409.395 12.4026L409.395 77.9332L398.476 77.9332L398.476 12.4026L373.387 12.4026L373.387 1.47192Z" fill="black"/>
<path d="M113.284 117.128L127.557 117.128L127.557 119.931L116.084 119.931L116.084 125.536L125.877 125.536L125.877 128.339L116.084 128.339L116.084 133.931L127.557 133.931L127.557 136.733L113.284 136.733L113.284 117.128Z" fill="black"/>
<path d="M157.766 128.339C157.384 128.339 157.019 128.266 156.673 128.12C156.337 127.965 156.041 127.765 155.786 127.518C155.531 127.263 155.33 126.967 155.185 126.63C155.039 126.283 154.966 125.919 154.966 125.536L154.966 119.931C154.966 119.548 155.039 119.188 155.185 118.85C155.33 118.504 155.531 118.208 155.786 117.962C156.041 117.707 156.337 117.506 156.673 117.36C157.019 117.205 157.384 117.128 157.766 117.128L167.272 117.128C167.654 117.128 168.014 117.205 168.351 117.36C168.697 117.506 168.998 117.707 169.252 117.962C169.507 118.208 169.708 118.504 169.853 118.85C169.999 119.188 170.072 119.548 170.072 119.931L170.072 122.46L167.272 122.46L167.272 119.931L157.766 119.931L157.766 125.536L167.272 125.536C167.654 125.536 168.014 125.609 168.351 125.755C168.697 125.901 168.998 126.101 169.252 126.356C169.507 126.612 169.708 126.912 169.853 127.259C169.999 127.596 170.072 127.956 170.072 128.339L170.072 133.931C170.072 134.313 169.999 134.678 169.853 135.024C169.708 135.362 169.507 135.658 169.252 135.913C168.998 136.168 168.697 136.369 168.351 136.515C168.014 136.66 167.654 136.733 167.272 136.733L157.493 136.733C157.111 136.733 156.746 136.66 156.4 136.515C156.063 136.369 155.767 136.168 155.513 135.913C155.258 135.658 155.057 135.362 154.912 135.024C154.766 134.678 154.693 134.313 154.693 133.931L154.693 131.415L157.493 131.415L157.493 133.931L167.272 133.931L167.272 128.339L157.766 128.339Z" fill="black"/>
<path d="M196.662 117.128L212.328 117.128L212.328 119.931L205.895 119.931L205.895 136.733L203.095 136.733L203.095 119.931L196.662 119.931L196.662 117.128Z" fill="black"/>
<path d="M235.817 132.645L239.901 132.645L239.901 136.733L235.817 136.733L235.817 132.645Z" fill="black"/>
<path d="M270.411 119.931L270.411 122.46L267.611 122.46L267.611 119.931C267.611 119.548 267.684 119.188 267.829 118.85C267.975 118.504 268.175 118.208 268.43 117.962C268.685 117.707 268.981 117.506 269.318 117.36C269.664 117.205 270.028 117.128 270.411 117.128L279.275 117.128C279.657 117.128 280.017 117.205 280.354 117.36C280.7 117.506 280.996 117.707 281.241 117.962C281.496 118.208 281.697 118.504 281.842 118.85C281.997 119.188 282.075 119.548 282.075 119.931L282.075 123.513C282.075 123.895 282.038 124.237 281.965 124.538C281.892 124.839 281.774 125.112 281.61 125.358C281.455 125.595 281.255 125.809 281.009 126.001C280.763 126.192 280.463 126.375 280.108 126.548L270.411 131.1L270.411 133.931L279.63 133.931L279.63 131.415L282.43 131.415L282.43 136.733L267.611 136.733L267.611 131.579C267.611 131.196 267.647 130.854 267.72 130.554C267.802 130.253 267.92 129.984 268.075 129.747C268.23 129.51 268.43 129.296 268.676 129.104C268.931 128.904 269.227 128.722 269.564 128.557L279.275 123.991L279.275 119.931L270.411 119.931Z" fill="black"/>
<path d="M325.805 133.931C325.805 134.313 325.732 134.678 325.587 135.024C325.441 135.362 325.241 135.658 324.986 135.913C324.731 136.168 324.43 136.369 324.084 136.515C323.747 136.66 323.388 136.733 323.005 136.733L313.213 136.733C312.83 136.733 312.466 136.66 312.12 136.515C311.783 136.369 311.487 136.168 311.232 135.913C310.977 135.658 310.777 135.362 310.631 135.024C310.486 134.678 310.413 134.313 310.413 133.931L310.413 119.931C310.413 119.548 310.486 119.188 310.631 118.85C310.777 118.504 310.977 118.208 311.232 117.962C311.487 117.707 311.783 117.506 312.12 117.36C312.466 117.205 312.83 117.128 313.213 117.128L323.005 117.128C323.388 117.128 323.747 117.205 324.084 117.36C324.43 117.506 324.731 117.707 324.986 117.962C325.241 118.208 325.441 118.504 325.587 118.85C325.732 119.188 325.805 119.548 325.805 119.931L325.805 133.931ZM313.213 119.931L313.213 133.931L323.005 133.931L323.005 119.931L313.213 119.931Z" fill="black"/>
<path d="M356.588 119.931L356.588 122.46L353.788 122.46L353.788 119.931C353.788 119.548 353.861 119.188 354.007 118.85C354.153 118.504 354.353 118.208 354.608 117.962C354.863 117.707 355.159 117.506 355.496 117.36C355.842 117.205 356.206 117.128 356.588 117.128L365.452 117.128C365.835 117.128 366.194 117.205 366.531 117.36C366.877 117.506 367.173 117.707 367.419 117.962C367.674 118.208 367.874 118.504 368.02 118.85C368.175 119.188 368.252 119.548 368.252 119.931L368.252 123.513C368.252 123.895 368.216 124.237 368.143 124.538C368.07 124.839 367.952 125.112 367.788 125.358C367.633 125.595 367.433 125.809 367.187 126.001C366.941 126.192 366.641 126.375 366.285 126.548L356.588 131.1L356.588 133.931L365.807 133.931L365.807 131.415L368.607 131.415L368.607 136.733L353.788 136.733L353.788 131.579C353.788 131.196 353.825 130.854 353.898 130.554C353.98 130.253 354.098 129.984 354.253 129.747C354.408 129.51 354.608 129.296 354.854 129.104C355.109 128.904 355.405 128.722 355.741 128.557L365.452 123.991L365.452 119.931L356.588 119.931Z" fill="black"/>
<path d="M399.117 119.931L399.117 122.46L396.317 122.46L396.317 119.931C396.317 119.548 396.39 119.188 396.536 118.85C396.681 118.504 396.882 118.208 397.137 117.962C397.392 117.707 397.687 117.506 398.024 117.36C398.37 117.205 398.735 117.128 399.117 117.128L407.981 117.128C408.363 117.128 408.723 117.205 409.06 117.36C409.406 117.506 409.702 117.707 409.948 117.962C410.203 118.208 410.403 118.504 410.549 118.85C410.704 119.188 410.781 119.548 410.781 119.931L410.781 123.513C410.781 123.895 410.745 124.237 410.672 124.538C410.599 124.839 410.48 125.112 410.317 125.358C410.162 125.595 409.961 125.809 409.716 126.001C409.47 126.192 409.169 126.375 408.814 126.548L399.117 131.1L399.117 133.931L408.336 133.931L408.336 131.415L411.136 131.415L411.136 136.733L396.317 136.733L396.317 131.579C396.317 131.196 396.354 130.854 396.426 130.554C396.508 130.253 396.627 129.984 396.782 129.747C396.936 129.51 397.137 129.296 397.382 129.104C397.637 128.904 397.933 128.722 398.27 128.557L407.981 123.991L407.981 119.931L399.117 119.931Z" fill="black"/>
<path d="M0 -5.34058e-05L10.7225 -5.34062e-05L10.7225 140L-6.19536e-09 140L0 -5.34058e-05Z" fill="black"/>
<path d="M512.812 -6.10352e-05L523.535 -6.10356e-05L523.535 140L512.812 140L512.812 -6.10352e-05Z" fill="black"/>
</svg>
